<svg xmlns="http://www.w3.org/2000/svg" xmlns:xlink="http://www.w3.org/1999/xlink" width="500" zoomAndPan="magnify" viewBox="0 0 375 374.999991" height="500" preserveAspectRatio="xMidYMid meet" version="1.0"><defs><g/><clipPath id="a3c74aa650"><path d="M 46 91 L 296 91 L 296 296 L 46 296 Z M 46 91 " clip-rule="nonzero"/></clipPath><clipPath id="1462caf6f0"><path d="M 0 154.160156 L 339.75 20.082031 L 419.042969 221 L 79.292969 355.078125 Z M 0 154.160156 " clip-rule="nonzero"/></clipPath><clipPath id="002b2d0da3"><path d="M 0 154.160156 L 339.75 20.082031 L 419.042969 221 L 79.292969 355.078125 Z M 0 154.160156 " clip-rule="nonzero"/></clipPath><clipPath id="ab64ae8054"><path d="M 272 54 L 349 54 L 349 140 L 272 140 Z M 272 54 " clip-rule="nonzero"/></clipPath><clipPath id="dc87b8219c"><path d="M 0 154.160156 L 339.75 20.082031 L 419.042969 221 L 79.292969 355.078125 Z M 0 154.160156 " clip-rule="nonzero"/></clipPath><clipPath id="1c9e98a3d7"><path d="M 0 154.160156 L 339.75 20.082031 L 419.042969 221 L 79.292969 355.078125 Z M 0 154.160156 " clip-rule="nonzero"/></clipPath></defs><g fill="#454dd8" fill-opacity="0.4"><g transform="translate(99.185115, 131.52419)"><g><path d="M -29.96875 -34.65625 L -34.953125 -28.28125 L -41.90625 -33.71875 L -24.609375 -55.828125 L -17.65625 -50.390625 L -22.609375 -44.078125 L 12.796875 -16.375 L 5.4375 -6.953125 Z M -29.96875 -34.65625 "/></g></g></g><g fill="#454dd8" fill-opacity="0.4"><g transform="translate(115.261712, 109.215605)"><g><path d="M -27.5 -46.390625 L -15.359375 -54.859375 C -10.523438 -58.234375 -6.28125 -59.925781 -2.625 -59.9375 C 1.019531 -59.945312 4.363281 -57.773438 7.40625 -53.421875 C 9.457031 -50.472656 10.710938 -47.863281 11.171875 -45.59375 C 11.628906 -43.320312 11.164062 -40.972656 9.78125 -38.546875 L 30.703125 -21.421875 L 20.625 -14.390625 L 2 -30.78125 L -0.765625 -28.84375 L 13.015625 -9.078125 L 3.265625 -2.28125 Z M -1.96875 -36.359375 C -0.0078125 -37.722656 1 -39.191406 1.0625 -40.765625 C 1.125 -42.335938 0.429688 -44.160156 -1.015625 -46.234375 C -2.410156 -48.234375 -3.816406 -49.476562 -5.234375 -49.96875 C -6.660156 -50.46875 -8.265625 -50.097656 -10.046875 -48.859375 L -13.203125 -46.65625 L -4.6875 -34.453125 Z M -1.96875 -36.359375 "/></g></g></g><g fill="#454dd8" fill-opacity="0.4"><g transform="translate(147.411866, 88.158389)"><g><path d="M -14.421875 -51.96875 L -3.234375 -56 L 15 -5.40625 L 3.8125 -1.375 Z M -14.421875 -51.96875 "/></g></g></g><g fill="#454dd8" fill-opacity="0.4"><g transform="translate(164.925475, 80.494506)"><g><path d="M -0.84375 -53.921875 L 17.140625 -55.53125 C 21.847656 -55.957031 25.492188 -54.941406 28.078125 -52.484375 C 30.660156 -50.023438 32.175781 -46.28125 32.625 -41.25 C 33.144531 -35.519531 32.144531 -31.421875 29.625 -28.953125 C 27.113281 -26.492188 23.410156 -25.039062 18.515625 -24.59375 L 13.765625 -24.171875 L 15.8125 -1.421875 L 3.96875 -0.359375 Z M 16.984375 -32.796875 C 19.054688 -32.984375 20.382812 -33.65625 20.96875 -34.8125 C 21.5625 -35.96875 21.738281 -37.847656 21.5 -40.453125 C 21.289062 -42.828125 20.800781 -44.554688 20.03125 -45.640625 C 19.257812 -46.734375 17.796875 -47.179688 15.640625 -46.984375 L 11.75 -46.640625 L 13.03125 -32.4375 Z M 16.984375 -32.796875 "/></g></g></g><g fill="#454dd8" fill-opacity="1"><g transform="translate(95.223193, 130.289027)"><g><path d="M -29.96875 -34.65625 L -34.953125 -28.28125 L -41.90625 -33.71875 L -24.609375 -55.828125 L -17.65625 -50.390625 L -22.609375 -44.078125 L 12.796875 -16.375 L 5.4375 -6.953125 Z M -29.96875 -34.65625 "/></g></g></g><g fill="#454dd8" fill-opacity="1"><g transform="translate(111.299785, 107.980438)"><g><path d="M -27.5 -46.390625 L -15.359375 -54.859375 C -10.523438 -58.234375 -6.28125 -59.925781 -2.625 -59.9375 C 1.019531 -59.945312 4.363281 -57.773438 7.40625 -53.421875 C 9.457031 -50.472656 10.710938 -47.863281 11.171875 -45.59375 C 11.628906 -43.320312 11.164062 -40.972656 9.78125 -38.546875 L 30.703125 -21.421875 L 20.625 -14.390625 L 2 -30.78125 L -0.765625 -28.84375 L 13.015625 -9.078125 L 3.265625 -2.28125 Z M -1.96875 -36.359375 C -0.0078125 -37.722656 1 -39.191406 1.0625 -40.765625 C 1.125 -42.335938 0.429688 -44.160156 -1.015625 -46.234375 C -2.410156 -48.234375 -3.816406 -49.476562 -5.234375 -49.96875 C -6.660156 -50.46875 -8.265625 -50.097656 -10.046875 -48.859375 L -13.203125 -46.65625 L -4.6875 -34.453125 Z M -1.96875 -36.359375 "/></g></g></g><g fill="#454dd8" fill-opacity="1"><g transform="translate(143.449956, 86.92322)"><g><path d="M -14.421875 -51.96875 L -3.234375 -56 L 15 -5.40625 L 3.8125 -1.375 Z M -14.421875 -51.96875 "/></g></g></g><g fill="#454dd8" fill-opacity="1"><g transform="translate(160.963541, 79.259339)"><g><path d="M -0.84375 -53.921875 L 17.140625 -55.53125 C 21.847656 -55.957031 25.492188 -54.941406 28.078125 -52.484375 C 30.660156 -50.023438 32.175781 -46.28125 32.625 -41.25 C 33.144531 -35.519531 32.144531 -31.421875 29.625 -28.953125 C 27.113281 -26.492188 23.410156 -25.039062 18.515625 -24.59375 L 13.765625 -24.171875 L 15.8125 -1.421875 L 3.96875 -0.359375 Z M 16.984375 -32.796875 C 19.054688 -32.984375 20.382812 -33.65625 20.96875 -34.8125 C 21.5625 -35.96875 21.738281 -37.847656 21.5 -40.453125 C 21.289062 -42.828125 20.800781 -44.554688 20.03125 -45.640625 C 19.257812 -46.734375 17.796875 -47.179688 15.640625 -46.984375 L 11.75 -46.640625 L 13.03125 -32.4375 Z M 16.984375 -32.796875 "/></g></g></g><g fill="#454dd8" fill-opacity="0.4"><g transform="translate(76.802026, 319.373804)"><g><path d="M 35.609375 -28.828125 L 29.40625 -34.015625 L 35.0625 -40.78125 L 56.609375 -22.765625 L 50.953125 -16 L 44.78125 -21.15625 L 15.9375 13.328125 L 6.765625 5.65625 Z M 35.609375 -28.828125 "/></g></g></g><g fill="#454dd8" fill-opacity="0.4"><g transform="translate(111.595557, 346.039128)"><g><path d="M 26.296875 -47.078125 L 48.21875 -36.890625 L 44.796875 -29.53125 L 33.65625 -34.703125 L 28.03125 -22.609375 L 36.515625 -18.671875 L 33.03125 -11.203125 L 24.546875 -15.140625 L 17.78125 -0.578125 L 29.03125 4.640625 L 25.640625 11.921875 L 3.609375 1.6875 Z M 26.296875 -47.078125 "/></g></g></g><g fill="#454dd8" fill-opacity="0.4"><g transform="translate(152.902994, 363.401848)"><g><path d="M 19.390625 -51.46875 L 32.78125 -49.46875 L 34.734375 5.203125 L 23.90625 3.578125 L 23.8125 -7.921875 L 16 -9.09375 L 12.46875 1.875 L 1.375 0.203125 Z M 23.75 -15.09375 L 24.03125 -36.265625 L 18.09375 -15.953125 Z M 23.75 -15.09375 "/></g></g></g><g fill="#454dd8" fill-opacity="0.4"><g transform="translate(204.780887, 368.603121)"><g><path d="M 18.15625 -2.015625 C 13.09375 -1.234375 9.113281 -1.992188 6.21875 -4.296875 C 3.332031 -6.597656 1.347656 -10.664062 0.265625 -16.5 L 10.078125 -19.578125 C 10.640625 -16.210938 11.414062 -13.851562 12.40625 -12.5 C 13.394531 -11.15625 14.65625 -10.601562 16.1875 -10.84375 C 18.144531 -11.144531 18.925781 -12.585938 18.53125 -15.171875 C 18.207031 -17.210938 17.460938 -18.90625 16.296875 -20.25 C 15.140625 -21.59375 13.421875 -22.960938 11.140625 -24.359375 L 5.921875 -27.65625 C 3.347656 -29.226562 1.273438 -31 -0.296875 -32.96875 C -1.878906 -34.945312 -2.898438 -37.421875 -3.359375 -40.390625 C -4.054688 -44.847656 -3.265625 -48.484375 -0.984375 -51.296875 C 1.285156 -54.117188 4.734375 -55.890625 9.359375 -56.609375 C 14.398438 -57.390625 18.054688 -56.457031 20.328125 -53.8125 C 22.597656 -51.164062 24.113281 -47.75 24.875 -43.5625 L 14.984375 -40.734375 C 14.460938 -43.484375 13.898438 -45.425781 13.296875 -46.5625 C 12.703125 -47.707031 11.707031 -48.171875 10.3125 -47.953125 C 9.300781 -47.796875 8.585938 -47.25 8.171875 -46.3125 C 7.753906 -45.375 7.628906 -44.382812 7.796875 -43.34375 C 8.078125 -41.550781 8.710938 -40.101562 9.703125 -39 C 10.703125 -37.894531 12.21875 -36.691406 14.25 -35.390625 L 19.265625 -32.203125 C 22.234375 -30.390625 24.628906 -28.34375 26.453125 -26.0625 C 28.285156 -23.789062 29.46875 -20.953125 30 -17.546875 C 30.382812 -15.054688 30.15625 -12.703125 29.3125 -10.484375 C 28.46875 -8.265625 27.085938 -6.40625 25.171875 -4.90625 C 23.253906 -3.40625 20.914062 -2.441406 18.15625 -2.015625 Z M 18.15625 -2.015625 "/></g></g></g><g fill="#454dd8" fill-opacity="0.4"><g transform="translate(252.681731, 358.782365)"><g><path d="M -18.859375 -50.53125 L 3.09375 -60.640625 L 6.484375 -53.265625 L -4.671875 -48.125 L 0.90625 -36 L 9.40625 -39.90625 L 12.84375 -32.4375 L 4.34375 -28.53125 L 11.0625 -13.9375 L 22.328125 -19.125 L 25.6875 -11.828125 L 3.625 -1.671875 Z M -18.859375 -50.53125 "/></g></g></g><g fill="#454dd8" fill-opacity="0.4"><g transform="translate(293.064325, 338.464271)"><g><path d="M -32.890625 -42.734375 L -21.859375 -52.59375 C -17.460938 -56.53125 -13.445312 -58.722656 -9.8125 -59.171875 C -6.1875 -59.617188 -2.601562 -57.863281 0.9375 -53.90625 C 3.320312 -51.238281 4.875 -48.804688 5.59375 -46.609375 C 6.320312 -44.410156 6.144531 -42.023438 5.0625 -39.453125 L 27.90625 -24.953125 L 18.75 -16.765625 L -1.71875 -30.78125 L -4.234375 -28.53125 L 11.828125 -10.578125 L 2.96875 -2.65625 Z M -6.328125 -35.859375 C -4.546875 -37.441406 -3.71875 -39.019531 -3.84375 -40.59375 C -3.976562 -42.164062 -4.890625 -43.890625 -6.578125 -45.765625 C -8.203125 -47.585938 -9.75 -48.65625 -11.21875 -48.96875 C -12.6875 -49.289062 -14.226562 -48.726562 -15.84375 -47.28125 L -18.71875 -44.71875 L -8.796875 -33.640625 Z M -6.328125 -35.859375 "/></g></g></g><g fill="#454dd8" fill-opacity="0.4"><g transform="translate(332.566731, 299.157363)"><g><path d="M 9.859375 -15.375 C 7.285156 -10.9375 4.191406 -8.320312 0.578125 -7.53125 C -3.035156 -6.738281 -7.453125 -7.753906 -12.671875 -10.578125 L -8.875 -20.140625 C -5.90625 -18.460938 -3.582031 -17.585938 -1.90625 -17.515625 C -0.238281 -17.441406 0.976562 -18.070312 1.75 -19.40625 C 2.75 -21.125 2.117188 -22.640625 -0.140625 -23.953125 C -1.929688 -24.992188 -3.710938 -25.484375 -5.484375 -25.421875 C -7.265625 -25.359375 -9.414062 -24.878906 -11.9375 -23.984375 L -17.765625 -22 C -20.609375 -20.988281 -23.296875 -20.488281 -25.828125 -20.5 C -28.359375 -20.507812 -30.921875 -21.273438 -33.515625 -22.796875 C -37.421875 -25.054688 -39.75 -27.957031 -40.5 -31.5 C -41.257812 -35.039062 -40.460938 -38.835938 -38.109375 -42.890625 C -35.546875 -47.285156 -32.519531 -49.535156 -29.03125 -49.640625 C -25.550781 -49.742188 -21.941406 -48.78125 -18.203125 -46.75 L -22.25 -37.28125 C -24.71875 -38.601562 -26.582031 -39.390625 -27.84375 -39.640625 C -29.101562 -39.898438 -30.085938 -39.414062 -30.796875 -38.1875 C -31.304688 -37.300781 -31.328125 -36.398438 -30.859375 -35.484375 C -30.390625 -34.578125 -29.695312 -33.859375 -28.78125 -33.328125 C -27.21875 -32.410156 -25.691406 -31.992188 -24.203125 -32.078125 C -22.722656 -32.160156 -20.835938 -32.585938 -18.546875 -33.359375 L -12.921875 -35.234375 C -9.640625 -36.398438 -6.539062 -36.976562 -3.625 -36.96875 C -0.707031 -36.957031 2.242188 -36.085938 5.234375 -34.359375 C 7.410156 -33.085938 9.09375 -31.425781 10.28125 -29.375 C 11.476562 -27.320312 12.054688 -25.078125 12.015625 -22.640625 C 11.984375 -20.203125 11.265625 -17.78125 9.859375 -15.375 Z M 9.859375 -15.375 "/></g></g></g><g fill="#454dd8" fill-opacity="1"><g transform="translate(73.384551, 317.019596)"><g><path d="M 35.609375 -28.828125 L 29.40625 -34.015625 L 35.0625 -40.78125 L 56.609375 -22.765625 L 50.953125 -16 L 44.78125 -21.15625 L 15.9375 13.328125 L 6.765625 5.65625 Z M 35.609375 -28.828125 "/></g></g></g><g fill="#454dd8" fill-opacity="1"><g transform="translate(108.178092, 343.68492)"><g><path d="M 26.296875 -47.078125 L 48.21875 -36.890625 L 44.796875 -29.53125 L 33.65625 -34.703125 L 28.03125 -22.609375 L 36.515625 -18.671875 L 33.03125 -11.203125 L 24.546875 -15.140625 L 17.78125 -0.578125 L 29.03125 4.640625 L 25.640625 11.921875 L 3.609375 1.6875 Z M 26.296875 -47.078125 "/></g></g></g><g fill="#454dd8" fill-opacity="1"><g transform="translate(149.485529, 361.047638)"><g><path d="M 19.390625 -51.46875 L 32.78125 -49.46875 L 34.734375 5.203125 L 23.90625 3.578125 L 23.8125 -7.921875 L 16 -9.09375 L 12.46875 1.875 L 1.375 0.203125 Z M 23.75 -15.09375 L 24.03125 -36.265625 L 18.09375 -15.953125 Z M 23.75 -15.09375 "/></g></g></g><g fill="#454dd8" fill-opacity="1"><g transform="translate(201.363422, 366.248911)"><g><path d="M 18.15625 -2.015625 C 13.09375 -1.234375 9.113281 -1.992188 6.21875 -4.296875 C 3.332031 -6.597656 1.347656 -10.664062 0.265625 -16.5 L 10.078125 -19.578125 C 10.640625 -16.210938 11.414062 -13.851562 12.40625 -12.5 C 13.394531 -11.15625 14.65625 -10.601562 16.1875 -10.84375 C 18.144531 -11.144531 18.925781 -12.585938 18.53125 -15.171875 C 18.207031 -17.210938 17.460938 -18.90625 16.296875 -20.25 C 15.140625 -21.59375 13.421875 -22.960938 11.140625 -24.359375 L 5.921875 -27.65625 C 3.347656 -29.226562 1.273438 -31 -0.296875 -32.96875 C -1.878906 -34.945312 -2.898438 -37.421875 -3.359375 -40.390625 C -4.054688 -44.847656 -3.265625 -48.484375 -0.984375 -51.296875 C 1.285156 -54.117188 4.734375 -55.890625 9.359375 -56.609375 C 14.398438 -57.390625 18.054688 -56.457031 20.328125 -53.8125 C 22.597656 -51.164062 24.113281 -47.75 24.875 -43.5625 L 14.984375 -40.734375 C 14.460938 -43.484375 13.898438 -45.425781 13.296875 -46.5625 C 12.703125 -47.707031 11.707031 -48.171875 10.3125 -47.953125 C 9.300781 -47.796875 8.585938 -47.25 8.171875 -46.3125 C 7.753906 -45.375 7.628906 -44.382812 7.796875 -43.34375 C 8.078125 -41.550781 8.710938 -40.101562 9.703125 -39 C 10.703125 -37.894531 12.21875 -36.691406 14.25 -35.390625 L 19.265625 -32.203125 C 22.234375 -30.390625 24.628906 -28.34375 26.453125 -26.0625 C 28.285156 -23.789062 29.46875 -20.953125 30 -17.546875 C 30.382812 -15.054688 30.15625 -12.703125 29.3125 -10.484375 C 28.46875 -8.265625 27.085938 -6.40625 25.171875 -4.90625 C 23.253906 -3.40625 20.914062 -2.441406 18.15625 -2.015625 Z M 18.15625 -2.015625 "/></g></g></g><g fill="#454dd8" fill-opacity="1"><g transform="translate(249.26428, 356.428183)"><g><path d="M -18.859375 -50.53125 L 3.09375 -60.640625 L 6.484375 -53.265625 L -4.671875 -48.125 L 0.90625 -36 L 9.40625 -39.90625 L 12.84375 -32.4375 L 4.34375 -28.53125 L 11.0625 -13.9375 L 22.328125 -19.125 L 25.6875 -11.828125 L 3.625 -1.671875 Z M -18.859375 -50.53125 "/></g></g></g><g fill="#454dd8" fill-opacity="1"><g transform="translate(289.646829, 336.110063)"><g><path d="M -32.890625 -42.734375 L -21.859375 -52.59375 C -17.460938 -56.53125 -13.445312 -58.722656 -9.8125 -59.171875 C -6.1875 -59.617188 -2.601562 -57.863281 0.9375 -53.90625 C 3.320312 -51.238281 4.875 -48.804688 5.59375 -46.609375 C 6.320312 -44.410156 6.144531 -42.023438 5.0625 -39.453125 L 27.90625 -24.953125 L 18.75 -16.765625 L -1.71875 -30.78125 L -4.234375 -28.53125 L 11.828125 -10.578125 L 2.96875 -2.65625 Z M -6.328125 -35.859375 C -4.546875 -37.441406 -3.71875 -39.019531 -3.84375 -40.59375 C -3.976562 -42.164062 -4.890625 -43.890625 -6.578125 -45.765625 C -8.203125 -47.585938 -9.75 -48.65625 -11.21875 -48.96875 C -12.6875 -49.289062 -14.226562 -48.726562 -15.84375 -47.28125 L -18.71875 -44.71875 L -8.796875 -33.640625 Z M -6.328125 -35.859375 "/></g></g></g><g fill="#454dd8" fill-opacity="1"><g transform="translate(329.149249, 296.803184)"><g><path d="M 9.859375 -15.375 C 7.285156 -10.9375 4.191406 -8.320312 0.578125 -7.53125 C -3.035156 -6.738281 -7.453125 -7.753906 -12.671875 -10.578125 L -8.875 -20.140625 C -5.90625 -18.460938 -3.582031 -17.585938 -1.90625 -17.515625 C -0.238281 -17.441406 0.976562 -18.070312 1.75 -19.40625 C 2.75 -21.125 2.117188 -22.640625 -0.140625 -23.953125 C -1.929688 -24.992188 -3.710938 -25.484375 -5.484375 -25.421875 C -7.265625 -25.359375 -9.414062 -24.878906 -11.9375 -23.984375 L -17.765625 -22 C -20.609375 -20.988281 -23.296875 -20.488281 -25.828125 -20.5 C -28.359375 -20.507812 -30.921875 -21.273438 -33.515625 -22.796875 C -37.421875 -25.054688 -39.75 -27.957031 -40.5 -31.5 C -41.257812 -35.039062 -40.460938 -38.835938 -38.109375 -42.890625 C -35.546875 -47.285156 -32.519531 -49.535156 -29.03125 -49.640625 C -25.550781 -49.742188 -21.941406 -48.78125 -18.203125 -46.75 L -22.25 -37.28125 C -24.71875 -38.601562 -26.582031 -39.390625 -27.84375 -39.640625 C -29.101562 -39.898438 -30.085938 -39.414062 -30.796875 -38.1875 C -31.304688 -37.300781 -31.328125 -36.398438 -30.859375 -35.484375 C -30.390625 -34.578125 -29.695312 -33.859375 -28.78125 -33.328125 C -27.21875 -32.410156 -25.691406 -31.992188 -24.203125 -32.078125 C -22.722656 -32.160156 -20.835938 -32.585938 -18.546875 -33.359375 L -12.921875 -35.234375 C -9.640625 -36.398438 -6.539062 -36.976562 -3.625 -36.96875 C -0.707031 -36.957031 2.242188 -36.085938 5.234375 -34.359375 C 7.410156 -33.085938 9.09375 -31.425781 10.28125 -29.375 C 11.476562 -27.320312 12.054688 -25.078125 12.015625 -22.640625 C 11.984375 -20.203125 11.265625 -17.78125 9.859375 -15.375 Z M 9.859375 -15.375 "/></g></g></g><g clip-path="url(#a3c74aa650)"><g clip-path="url(#1462caf6f0)"><g clip-path="url(#002b2d0da3)"><path fill="#454dd8" d="M 281.09375 141.859375 C 285.734375 149.75 289.476562 158.453125 291.917969 167.742188 C 306.34375 222.132812 273.917969 277.867188 219.527344 292.289062 C 175.582031 303.894531 130.773438 284.992188 107.539062 248.621094 C 107.582031 248.527344 219.898438 226.320312 281.09375 141.859375 M 66.773438 238.609375 C 31.222656 233.273438 47.546875 202.875 74.835938 190.574219 C 68.597656 195.714844 45.238281 229.808594 95.738281 224.730469 C 95.964844 224.714844 96.253906 224.679688 96.480469 224.667969 C 96.011719 223.089844 95.542969 221.515625 95.046875 219.875 C 80.625 165.484375 113.046875 109.75 167.4375 95.328125 C 210.605469 83.878906 254.648438 102.011719 278.152344 137.128906 C 264.390625 157.332031 230.210938 183.984375 191.65625 204.019531 C 146.242188 227.605469 94.914062 242.8125 66.773438 238.609375 Z M 66.773438 238.609375 " fill-opacity="1" fill-rule="evenodd"/></g></g></g><g clip-path="url(#ab64ae8054)"><g clip-path="url(#dc87b8219c)"><g clip-path="url(#1c9e98a3d7)"><path fill="#454dd8" d="M 283.246094 73.425781 C 294.980469 74.84375 314.582031 78.742188 319.605469 73.238281 C 323.429688 68.972656 327.324219 64.679688 331.21875 60.390625 C 343.667969 46.75 354.40625 57.285156 344.730469 71.359375 L 335.957031 84.617188 C 331.832031 90.839844 339.160156 107.082031 343.894531 117.917969 C 346.027344 122.738281 345.246094 126.1875 343.472656 128.875 C 342.554688 130.234375 341.882812 130.269531 340.910156 128.96875 C 334.578125 120.292969 328.3125 111.59375 321.976562 102.917969 C 320.757812 101.179688 319.847656 100.621094 318.292969 102.304688 C 312.84375 108.28125 307.371094 114.191406 301.921875 120.167969 C 301.496094 120.644531 301.335938 121.011719 301.703125 121.554688 C 305.074219 127.574219 306.851562 134.601562 303.488281 138.683594 C 302.703125 139.605469 302.136719 139.910156 301.414062 138.664062 C 299.25 134.925781 297.050781 129.746094 294.953125 126.363281 C 292.351562 128.308594 289.863281 126.460938 290.695312 123.527344 L 277.71875 122.066406 C 274.746094 121.710938 275.640625 119.902344 277.328125 118.546875 C 280.9375 115.667969 287.519531 115.289062 293.148438 115.976562 C 294.035156 116.085938 294.457031 115.996094 294.910156 115.207031 L 307.679688 92.867188 C 308.707031 91.011719 308.125 90.703125 306.382812 90.167969 L 273.554688 79.703125 C 271.71875 79.125 271.828125 78.238281 273.15625 76.949219 C 275.8125 74.371094 278.316406 72.769531 283.246094 73.425781 " fill-opacity="1" fill-rule="evenodd"/></g></g></g></svg>