<svg xmlns="http://www.w3.org/2000/svg" xmlns:xlink="http://www.w3.org/1999/xlink" width="150" zoomAndPan="magnify" viewBox="90 0 375 374.999991" height="150" preserveAspectRatio="xMidYMid meet" version="1.0"><defs><g/><clipPath id="26ef420cf0"><path d="M 94 127 L 251 127 L 251 256 L 94 256 Z M 94 127 " clip-rule="nonzero"/></clipPath><clipPath id="37e40888c7"><path d="M 65.726562 166.628906 L 278.507812 82.660156 L 328.066406 208.234375 L 115.285156 292.207031 Z M 65.726562 166.628906 " clip-rule="nonzero"/></clipPath><clipPath id="43969cf04b"><path d="M 65.726562 166.628906 L 278.507812 82.660156 L 328.066406 208.234375 L 115.285156 292.207031 Z M 65.726562 166.628906 " clip-rule="nonzero"/></clipPath><clipPath id="65dfd78d1c"><path d="M 236 103 L 284 103 L 284 158 L 236 158 Z M 236 103 " clip-rule="nonzero"/></clipPath><clipPath id="6b06a69499"><path d="M 65.726562 166.628906 L 278.507812 82.660156 L 328.066406 208.234375 L 115.285156 292.207031 Z M 65.726562 166.628906 " clip-rule="nonzero"/></clipPath><clipPath id="945bd4f65e"><path d="M 65.726562 166.628906 L 278.507812 82.660156 L 328.066406 208.234375 L 115.285156 292.207031 Z M 65.726562 166.628906 " clip-rule="nonzero"/></clipPath></defs><g fill="#454dd8" fill-opacity="0.4"><g transform="translate(129.741886, 151.797731)"><g><path d="M -17.1875 -24.5 L -20.859375 -20.6875 L -25.015625 -24.6875 L -12.296875 -37.921875 L -8.140625 -33.921875 L -11.78125 -30.140625 L 9.40625 -9.796875 L 4 -4.15625 Z M -17.1875 -24.5 "/></g></g></g><g fill="#454dd8" fill-opacity="0.4"><g transform="translate(141.616619, 138.362305)"><g><path d="M -14.390625 -32.15625 L -5.875 -36.75 C -2.5 -38.570312 0.375 -39.351562 2.75 -39.09375 C 5.132812 -38.84375 7.148438 -37.191406 8.796875 -34.140625 C 9.910156 -32.078125 10.523438 -30.285156 10.640625 -28.765625 C 10.765625 -27.253906 10.289062 -25.765625 9.21875 -24.296875 L 21.53125 -11.625 L 14.46875 -7.796875 L 3.578125 -19.828125 L 1.640625 -18.78125 L 9.125 -4.921875 L 2.296875 -1.234375 Z M 1.453125 -23.75 C 2.828125 -24.488281 3.585938 -25.367188 3.734375 -26.390625 C 3.890625 -27.410156 3.570312 -28.648438 2.78125 -30.109375 C 2.03125 -31.503906 1.210938 -32.410156 0.328125 -32.828125 C -0.554688 -33.253906 -1.625 -33.132812 -2.875 -32.46875 L -5.09375 -31.265625 L -0.46875 -22.71875 Z M 1.453125 -23.75 "/></g></g></g><g fill="#454dd8" fill-opacity="0.4"><g transform="translate(164.024854, 127.135706)"><g><path d="M -5.09375 -34.875 L 2.484375 -36.5625 L 10.15625 -2.265625 L 2.578125 -0.578125 Z M -5.09375 -34.875 "/></g></g></g><g fill="#454dd8" fill-opacity="0.4"><g transform="translate(175.961716, 123.56812)"><g><path d="M 4.265625 -34.96875 L 16.046875 -34.421875 C 19.140625 -34.273438 21.40625 -33.289062 22.84375 -31.46875 C 24.289062 -29.65625 24.9375 -27.101562 24.78125 -23.8125 C 24.601562 -20.0625 23.59375 -17.492188 21.75 -16.109375 C 19.914062 -14.734375 17.394531 -14.117188 14.1875 -14.265625 L 11.0625 -14.421875 L 10.359375 0.484375 L 2.609375 0.125 Z M 13.90625 -19.71875 C 15.269531 -19.65625 16.191406 -19.972656 16.671875 -20.671875 C 17.160156 -21.367188 17.441406 -22.570312 17.515625 -24.28125 C 17.597656 -25.84375 17.4375 -27.007812 17.03125 -27.78125 C 16.632812 -28.550781 15.726562 -28.96875 14.3125 -29.03125 L 11.75 -29.15625 L 11.3125 -19.84375 Z M 13.90625 -19.71875 "/></g></g></g><g fill="#454dd8" fill-opacity="1"><g transform="translate(127.267464, 150.686735)"><g><path d="M -17.1875 -24.5 L -20.859375 -20.6875 L -25.015625 -24.6875 L -12.296875 -37.921875 L -8.140625 -33.921875 L -11.78125 -30.140625 L 9.40625 -9.796875 L 4 -4.15625 Z M -17.1875 -24.5 "/></g></g></g><g fill="#454dd8" fill-opacity="1"><g transform="translate(139.14219, 137.25131)"><g><path d="M -14.390625 -32.15625 L -5.875 -36.75 C -2.5 -38.570312 0.375 -39.351562 2.75 -39.09375 C 5.132812 -38.84375 7.148438 -37.191406 8.796875 -34.140625 C 9.910156 -32.078125 10.523438 -30.285156 10.640625 -28.765625 C 10.765625 -27.253906 10.289062 -25.765625 9.21875 -24.296875 L 21.53125 -11.625 L 14.46875 -7.796875 L 3.578125 -19.828125 L 1.640625 -18.78125 L 9.125 -4.921875 L 2.296875 -1.234375 Z M 1.453125 -23.75 C 2.828125 -24.488281 3.585938 -25.367188 3.734375 -26.390625 C 3.890625 -27.410156 3.570312 -28.648438 2.78125 -30.109375 C 2.03125 -31.503906 1.210938 -32.410156 0.328125 -32.828125 C -0.554688 -33.253906 -1.625 -33.132812 -2.875 -32.46875 L -5.09375 -31.265625 L -0.46875 -22.71875 Z M 1.453125 -23.75 "/></g></g></g><g fill="#454dd8" fill-opacity="1"><g transform="translate(161.55044, 126.02471)"><g><path d="M -5.09375 -34.875 L 2.484375 -36.5625 L 10.15625 -2.265625 L 2.578125 -0.578125 Z M -5.09375 -34.875 "/></g></g></g><g fill="#454dd8" fill-opacity="1"><g transform="translate(173.487301, 122.457124)"><g><path d="M 4.265625 -34.96875 L 16.046875 -34.421875 C 19.140625 -34.273438 21.40625 -33.289062 22.84375 -31.46875 C 24.289062 -29.65625 24.9375 -27.101562 24.78125 -23.8125 C 24.601562 -20.0625 23.59375 -17.492188 21.75 -16.109375 C 19.914062 -14.734375 17.394531 -14.117188 14.1875 -14.265625 L 11.0625 -14.421875 L 10.359375 0.484375 L 2.609375 0.125 Z M 13.90625 -19.71875 C 15.269531 -19.65625 16.191406 -19.972656 16.671875 -20.671875 C 17.160156 -21.367188 17.441406 -22.570312 17.515625 -24.28125 C 17.597656 -25.84375 17.4375 -27.007812 17.03125 -27.78125 C 16.632812 -28.550781 15.726562 -28.96875 14.3125 -29.03125 L 11.75 -29.15625 L 11.3125 -19.84375 Z M 13.90625 -19.71875 "/></g></g></g><g fill="#454dd8" fill-opacity="0.4"><g transform="translate(107.786992, 260.877024)"><g><path d="M 24.875 -16.65625 L 21.140625 -20.390625 L 25.234375 -24.46875 L 38.1875 -11.484375 L 34.09375 -7.40625 L 30.390625 -11.125 L 9.59375 9.609375 L 4.078125 4.078125 Z M 24.875 -16.65625 "/></g></g></g><g fill="#454dd8" fill-opacity="0.4"><g transform="translate(129.055173, 280.335797)"><g><path d="M 19.40625 -29.421875 L 33.1875 -21.734375 L 30.609375 -17.125 L 23.609375 -21.03125 L 19.359375 -13.40625 L 24.6875 -10.421875 L 22.0625 -5.71875 L 16.734375 -8.703125 L 11.625 0.46875 L 18.703125 4.421875 L 16.140625 9 L 2.28125 1.265625 Z M 19.40625 -29.421875 "/></g></g></g><g fill="#454dd8" fill-opacity="0.4"><g transform="translate(155.368177, 293.63963)"><g><path d="M 14.5 -32.890625 L 23.171875 -31.109375 L 22.484375 4.640625 L 15.46875 3.1875 L 15.828125 -4.3125 L 10.765625 -5.359375 L 8.078125 1.671875 L 0.890625 0.1875 Z M 16.046875 -9 L 16.984375 -22.828125 L 12.390625 -9.765625 Z M 16.046875 -9 "/></g></g></g><g fill="#454dd8" fill-opacity="0.4"><g transform="translate(189.260991, 298.78871)"><g><path d="M 11.921875 -0.90625 C 8.585938 -0.5 6 -1.082031 4.15625 -2.65625 C 2.320312 -4.226562 1.117188 -6.929688 0.546875 -10.765625 L 7.03125 -12.546875 C 7.3125 -10.335938 7.757812 -8.78125 8.375 -7.875 C 8.988281 -6.976562 9.804688 -6.59375 10.828125 -6.71875 C 12.117188 -6.863281 12.664062 -7.78125 12.46875 -9.46875 C 12.300781 -10.820312 11.847656 -11.953125 11.109375 -12.859375 C 10.378906 -13.765625 9.285156 -14.695312 7.828125 -15.65625 L 4.5 -17.921875 C 2.851562 -19.003906 1.535156 -20.207031 0.546875 -21.53125 C -0.441406 -22.851562 -1.054688 -24.492188 -1.296875 -26.453125 C -1.640625 -29.378906 -1.035156 -31.738281 0.515625 -33.53125 C 2.066406 -35.320312 4.367188 -36.398438 7.421875 -36.765625 C 10.710938 -37.160156 13.070312 -36.46875 14.5 -34.6875 C 15.925781 -32.90625 16.84375 -30.632812 17.25 -27.875 L 10.71875 -26.265625 C 10.445312 -28.078125 10.125 -29.359375 9.75 -30.109375 C 9.382812 -30.859375 8.742188 -31.179688 7.828125 -31.078125 C 7.160156 -30.992188 6.679688 -30.648438 6.390625 -30.046875 C 6.109375 -29.453125 6.007812 -28.8125 6.09375 -28.125 C 6.226562 -26.945312 6.609375 -25.988281 7.234375 -25.25 C 7.859375 -24.507812 8.816406 -23.691406 10.109375 -22.796875 L 13.3125 -20.59375 C 15.21875 -19.332031 16.738281 -17.941406 17.875 -16.421875 C 19.007812 -14.898438 19.710938 -13.015625 19.984375 -10.765625 C 20.179688 -9.128906 19.976562 -7.597656 19.375 -6.171875 C 18.769531 -4.753906 17.828125 -3.570312 16.546875 -2.625 C 15.265625 -1.6875 13.722656 -1.113281 11.921875 -0.90625 Z M 11.921875 -0.90625 "/></g></g></g><g fill="#454dd8" fill-opacity="0.4"><g transform="translate(220.936501, 293.318547)"><g><path d="M -11.765625 -33.203125 L 2.671875 -39.5625 L 4.796875 -34.734375 L -2.53125 -31.515625 L 0.984375 -23.515625 L 6.578125 -25.96875 L 8.75 -21.0625 L 3.15625 -18.609375 L 7.390625 -9 L 14.8125 -12.265625 L 16.921875 -7.453125 L 2.390625 -1.046875 Z M -11.765625 -33.203125 "/></g></g></g><g fill="#454dd8" fill-opacity="0.4"><g transform="translate(247.698114, 280.308712)"><g><path d="M -21.5625 -27.875 L -14.375 -34.34375 C -11.507812 -36.90625 -8.890625 -38.335938 -6.515625 -38.640625 C -4.140625 -38.953125 -1.796875 -37.816406 0.515625 -35.234375 C 2.085938 -33.492188 3.109375 -31.90625 3.578125 -30.46875 C 4.054688 -29.03125 3.941406 -27.472656 3.234375 -25.796875 L 18.1875 -16.359375 L 12.21875 -10.984375 L -1.171875 -20.109375 L -2.8125 -18.640625 L 7.71875 -6.9375 L 1.9375 -1.75 Z M -4.1875 -23.421875 C -3.019531 -24.460938 -2.484375 -25.5 -2.578125 -26.53125 C -2.671875 -27.5625 -3.269531 -28.691406 -4.375 -29.921875 C -5.4375 -31.097656 -6.445312 -31.789062 -7.40625 -32 C -8.363281 -32.207031 -9.375 -31.835938 -10.4375 -30.890625 L -12.296875 -29.203125 L -5.796875 -21.96875 Z M -4.1875 -23.421875 "/></g></g></g><g fill="#454dd8" fill-opacity="0.4"><g transform="translate(273.49051, 254.294255)"><g><path d="M 6.21875 -10.203125 C 4.59375 -7.265625 2.609375 -5.507812 0.265625 -4.9375 C -2.078125 -4.363281 -4.976562 -4.957031 -8.4375 -6.71875 L -6.109375 -13.03125 C -4.140625 -11.976562 -2.609375 -11.4375 -1.515625 -11.40625 C -0.421875 -11.382812 0.367188 -11.816406 0.859375 -12.703125 C 1.492188 -13.847656 1.0625 -14.832031 -0.4375 -15.65625 C -1.632812 -16.3125 -2.8125 -16.601562 -3.96875 -16.53125 C -5.132812 -16.457031 -6.535156 -16.109375 -8.171875 -15.484375 L -11.9375 -14.109375 C -13.78125 -13.410156 -15.53125 -13.039062 -17.1875 -13 C -18.84375 -12.957031 -20.53125 -13.414062 -22.25 -14.375 C -24.832031 -15.789062 -26.398438 -17.648438 -26.953125 -19.953125 C -27.503906 -22.265625 -27.035156 -24.765625 -25.546875 -27.453125 C -23.941406 -30.359375 -22 -31.867188 -19.71875 -31.984375 C -17.445312 -32.109375 -15.070312 -31.539062 -12.59375 -30.28125 L -15.109375 -24.015625 C -16.722656 -24.835938 -17.945312 -25.320312 -18.78125 -25.46875 C -19.613281 -25.613281 -20.25 -25.28125 -20.6875 -24.46875 C -21.007812 -23.882812 -21.015625 -23.300781 -20.703125 -22.71875 C -20.390625 -22.132812 -19.925781 -21.675781 -19.3125 -21.34375 C -18.269531 -20.769531 -17.265625 -20.519531 -16.296875 -20.59375 C -15.328125 -20.675781 -14.101562 -20.984375 -12.625 -21.515625 L -8.984375 -22.828125 C -6.847656 -23.628906 -4.828125 -24.050781 -2.921875 -24.09375 C -1.023438 -24.132812 0.910156 -23.609375 2.890625 -22.515625 C 4.335938 -21.722656 5.460938 -20.664062 6.265625 -19.34375 C 7.078125 -18.03125 7.488281 -16.578125 7.5 -14.984375 C 7.519531 -13.398438 7.09375 -11.804688 6.21875 -10.203125 Z M 6.21875 -10.203125 "/></g></g></g><g fill="#454dd8" fill-opacity="1"><g transform="translate(105.605401, 259.265256)"><g><path d="M 24.875 -16.65625 L 21.140625 -20.390625 L 25.234375 -24.46875 L 38.1875 -11.484375 L 34.09375 -7.40625 L 30.390625 -11.125 L 9.59375 9.609375 L 4.078125 4.078125 Z M 24.875 -16.65625 "/></g></g></g><g fill="#454dd8" fill-opacity="1"><g transform="translate(126.873597, 278.724031)"><g><path d="M 19.40625 -29.421875 L 33.1875 -21.734375 L 30.609375 -17.125 L 23.609375 -21.03125 L 19.359375 -13.40625 L 24.6875 -10.421875 L 22.0625 -5.71875 L 16.734375 -8.703125 L 11.625 0.46875 L 18.703125 4.421875 L 16.140625 9 L 2.28125 1.265625 Z M 19.40625 -29.421875 "/></g></g></g><g fill="#454dd8" fill-opacity="1"><g transform="translate(153.186587, 292.027862)"><g><path d="M 14.5 -32.890625 L 23.171875 -31.109375 L 22.484375 4.640625 L 15.46875 3.1875 L 15.828125 -4.3125 L 10.765625 -5.359375 L 8.078125 1.671875 L 0.890625 0.1875 Z M 16.046875 -9 L 16.984375 -22.828125 L 12.390625 -9.765625 Z M 16.046875 -9 "/></g></g></g><g fill="#454dd8" fill-opacity="1"><g transform="translate(187.079401, 297.176942)"><g><path d="M 11.921875 -0.90625 C 8.585938 -0.5 6 -1.082031 4.15625 -2.65625 C 2.320312 -4.226562 1.117188 -6.929688 0.546875 -10.765625 L 7.03125 -12.546875 C 7.3125 -10.335938 7.757812 -8.78125 8.375 -7.875 C 8.988281 -6.976562 9.804688 -6.59375 10.828125 -6.71875 C 12.117188 -6.863281 12.664062 -7.78125 12.46875 -9.46875 C 12.300781 -10.820312 11.847656 -11.953125 11.109375 -12.859375 C 10.378906 -13.765625 9.285156 -14.695312 7.828125 -15.65625 L 4.5 -17.921875 C 2.851562 -19.003906 1.535156 -20.207031 0.546875 -21.53125 C -0.441406 -22.851562 -1.054688 -24.492188 -1.296875 -26.453125 C -1.640625 -29.378906 -1.035156 -31.738281 0.515625 -33.53125 C 2.066406 -35.320312 4.367188 -36.398438 7.421875 -36.765625 C 10.710938 -37.160156 13.070312 -36.46875 14.5 -34.6875 C 15.925781 -32.90625 16.84375 -30.632812 17.25 -27.875 L 10.71875 -26.265625 C 10.445312 -28.078125 10.125 -29.359375 9.75 -30.109375 C 9.382812 -30.859375 8.742188 -31.179688 7.828125 -31.078125 C 7.160156 -30.992188 6.679688 -30.648438 6.390625 -30.046875 C 6.109375 -29.453125 6.007812 -28.8125 6.09375 -28.125 C 6.226562 -26.945312 6.609375 -25.988281 7.234375 -25.25 C 7.859375 -24.507812 8.816406 -23.691406 10.109375 -22.796875 L 13.3125 -20.59375 C 15.21875 -19.332031 16.738281 -17.941406 17.875 -16.421875 C 19.007812 -14.898438 19.710938 -13.015625 19.984375 -10.765625 C 20.179688 -9.128906 19.976562 -7.597656 19.375 -6.171875 C 18.769531 -4.753906 17.828125 -3.570312 16.546875 -2.625 C 15.265625 -1.6875 13.722656 -1.113281 11.921875 -0.90625 Z M 11.921875 -0.90625 "/></g></g></g><g fill="#454dd8" fill-opacity="1"><g transform="translate(218.754911, 291.706779)"><g><path d="M -11.765625 -33.203125 L 2.671875 -39.5625 L 4.796875 -34.734375 L -2.53125 -31.515625 L 0.984375 -23.515625 L 6.578125 -25.96875 L 8.75 -21.0625 L 3.15625 -18.609375 L 7.390625 -9 L 14.8125 -12.265625 L 16.921875 -7.453125 L 2.390625 -1.046875 Z M -11.765625 -33.203125 "/></g></g></g><g fill="#454dd8" fill-opacity="1"><g transform="translate(245.516522, 278.696975)"><g><path d="M -21.5625 -27.875 L -14.375 -34.34375 C -11.507812 -36.90625 -8.890625 -38.335938 -6.515625 -38.640625 C -4.140625 -38.953125 -1.796875 -37.816406 0.515625 -35.234375 C 2.085938 -33.492188 3.109375 -31.90625 3.578125 -30.46875 C 4.054688 -29.03125 3.941406 -27.472656 3.234375 -25.796875 L 18.1875 -16.359375 L 12.21875 -10.984375 L -1.171875 -20.109375 L -2.8125 -18.640625 L 7.71875 -6.9375 L 1.9375 -1.75 Z M -4.1875 -23.421875 C -3.019531 -24.460938 -2.484375 -25.5 -2.578125 -26.53125 C -2.671875 -27.5625 -3.269531 -28.691406 -4.375 -29.921875 C -5.4375 -31.097656 -6.445312 -31.789062 -7.40625 -32 C -8.363281 -32.207031 -9.375 -31.835938 -10.4375 -30.890625 L -12.296875 -29.203125 L -5.796875 -21.96875 Z M -4.1875 -23.421875 "/></g></g></g><g fill="#454dd8" fill-opacity="1"><g transform="translate(271.30892, 252.682487)"><g><path d="M 6.21875 -10.203125 C 4.59375 -7.265625 2.609375 -5.507812 0.265625 -4.9375 C -2.078125 -4.363281 -4.976562 -4.957031 -8.4375 -6.71875 L -6.109375 -13.03125 C -4.140625 -11.976562 -2.609375 -11.4375 -1.515625 -11.40625 C -0.421875 -11.382812 0.367188 -11.816406 0.859375 -12.703125 C 1.492188 -13.847656 1.0625 -14.832031 -0.4375 -15.65625 C -1.632812 -16.3125 -2.8125 -16.601562 -3.96875 -16.53125 C -5.132812 -16.457031 -6.535156 -16.109375 -8.171875 -15.484375 L -11.9375 -14.109375 C -13.78125 -13.410156 -15.53125 -13.039062 -17.1875 -13 C -18.84375 -12.957031 -20.53125 -13.414062 -22.25 -14.375 C -24.832031 -15.789062 -26.398438 -17.648438 -26.953125 -19.953125 C -27.503906 -22.265625 -27.035156 -24.765625 -25.546875 -27.453125 C -23.941406 -30.359375 -22 -31.867188 -19.71875 -31.984375 C -17.445312 -32.109375 -15.070312 -31.539062 -12.59375 -30.28125 L -15.109375 -24.015625 C -16.722656 -24.835938 -17.945312 -25.320312 -18.78125 -25.46875 C -19.613281 -25.613281 -20.25 -25.28125 -20.6875 -24.46875 C -21.007812 -23.882812 -21.015625 -23.300781 -20.703125 -22.71875 C -20.390625 -22.132812 -19.925781 -21.675781 -19.3125 -21.34375 C -18.269531 -20.769531 -17.265625 -20.519531 -16.296875 -20.59375 C -15.328125 -20.675781 -14.101562 -20.984375 -12.625 -21.515625 L -8.984375 -22.828125 C -6.847656 -23.628906 -4.828125 -24.050781 -2.921875 -24.09375 C -1.023438 -24.132812 0.910156 -23.609375 2.890625 -22.515625 C 4.335938 -21.722656 5.460938 -20.664062 6.265625 -19.34375 C 7.078125 -18.03125 7.488281 -16.578125 7.5 -14.984375 C 7.519531 -13.398438 7.09375 -11.804688 6.21875 -10.203125 Z M 6.21875 -10.203125 "/></g></g></g><g clip-path="url(#26ef420cf0)"><g clip-path="url(#37e40888c7)"><g clip-path="url(#43969cf04b)"><path fill="#454dd8" d="M 241.671875 158.929688 C 244.578125 163.867188 246.921875 169.316406 248.449219 175.132812 C 257.476562 209.175781 237.183594 244.0625 203.136719 253.089844 C 175.628906 260.351562 147.582031 248.519531 133.039062 225.753906 C 133.066406 225.695312 203.371094 211.796875 241.671875 158.929688 M 107.523438 219.488281 C 85.269531 216.148438 95.488281 197.121094 112.570312 189.421875 C 108.664062 192.640625 94.042969 213.980469 125.652344 210.800781 C 125.792969 210.792969 125.976562 210.769531 126.117188 210.761719 C 125.824219 209.773438 125.53125 208.789062 125.222656 207.761719 C 116.191406 173.714844 136.488281 138.832031 170.53125 129.804688 C 197.550781 122.636719 225.121094 133.984375 239.832031 155.96875 C 231.21875 168.613281 209.824219 185.296875 185.691406 197.835938 C 157.265625 212.601562 125.136719 222.117188 107.523438 219.488281 Z M 107.523438 219.488281 " fill-opacity="1" fill-rule="evenodd"/></g></g></g><g clip-path="url(#65dfd78d1c)"><g clip-path="url(#6b06a69499)"><g clip-path="url(#945bd4f65e)"><path fill="#454dd8" d="M 243.023438 116.09375 C 250.367188 116.980469 262.636719 119.421875 265.777344 115.976562 C 268.175781 113.308594 270.613281 110.621094 273.050781 107.933594 C 280.84375 99.398438 287.5625 105.992188 281.507812 114.800781 L 276.015625 123.101562 C 273.433594 126.992188 278.019531 137.160156 280.984375 143.941406 C 282.320312 146.960938 281.828125 149.121094 280.71875 150.800781 C 280.144531 151.652344 279.722656 151.675781 279.113281 150.859375 C 275.152344 145.429688 271.230469 139.984375 267.265625 134.554688 C 266.5 133.464844 265.929688 133.117188 264.957031 134.171875 C 261.546875 137.910156 258.121094 141.613281 254.710938 145.351562 C 254.445312 145.648438 254.34375 145.878906 254.574219 146.222656 C 256.683594 149.988281 257.796875 154.386719 255.691406 156.941406 C 255.203125 157.519531 254.84375 157.707031 254.394531 156.929688 C 253.039062 154.589844 251.664062 151.347656 250.347656 149.230469 C 248.722656 150.449219 247.164062 149.289062 247.683594 147.457031 L 239.5625 146.539062 C 237.703125 146.316406 238.261719 145.183594 239.316406 144.339844 C 241.574219 142.535156 245.695312 142.296875 249.21875 142.730469 C 249.773438 142.796875 250.039062 142.742188 250.324219 142.246094 L 258.316406 128.265625 C 258.957031 127.101562 258.59375 126.910156 257.503906 126.574219 L 236.953125 120.023438 C 235.804688 119.660156 235.875 119.105469 236.707031 118.300781 C 238.367188 116.6875 239.9375 115.683594 243.023438 116.09375 " fill-opacity="1" fill-rule="evenodd"/></g></g></g></svg>